<svg width="580" height="120" viewBox="0 0 580 120" fill="none" xmlns="http://www.w3.org/2000/svg">
<rect x="-28" width="120" height="120" rx="60" fill="#FFADF2"/>
<g clip-path="url(#clip0_1_53)">
<path d="M63.1825 55.5622C62.9498 56.687 61.9801 57.424 60.8941 57.424C60.7389 57.424 60.5837 57.424 60.4674 57.3852C59.1874 57.1525 58.3728 55.9113 58.6444 54.6701C60.4286 45.5549 56.4334 38.767 48.2104 36.9052C40.7244 35.2374 33.6262 42.607 33.5486 42.6846C33.1219 43.1501 32.5013 43.4216 31.8419 43.4216C31.2213 43.4216 30.6007 43.1501 30.1353 42.6846C30.0577 42.607 22.9595 35.2374 15.4734 36.9052C7.2892 38.767 3.29405 45.5549 5.03951 54.6701C5.27224 55.9113 4.45769 57.1525 3.21647 57.3852C1.97526 57.618 0.734049 56.8034 0.501322 55.5622C-0.623526 49.744 0.152238 44.4689 2.75103 40.2798C4.768 37.0604 7.75466 34.6555 11.4783 33.2592C12.4092 32.9101 13.4177 32.5998 14.465 32.367C22.0674 30.6604 28.8165 35.3149 31.8419 37.9137C34.8674 35.3149 41.6165 30.6604 49.2189 32.367C52.128 33.0264 54.688 34.1901 56.8213 35.8192C58.4504 37.0604 59.8468 38.5343 60.9328 40.2798C63.5316 44.4301 64.3074 49.7052 63.1825 55.5622Z" fill="#C622AC"/>
<path d="M44.1377 73.7925C44.1377 73.7925 48.6758 67.7416 50.111 66.2289C50.111 66.2289 51.7013 64.4834 52.7486 66.0737L51.1971 70.224L44.9522 76.5077L41.7716 76.7404L44.1377 73.7925Z" fill="#FF60E6"/>
<path fill-rule="evenodd" clip-rule="evenodd" d="M52.903 65.9181C52.989 65.982 53.0069 66.1035 52.9431 66.1895C51.4757 68.1655 49.0578 70.4846 47.0158 72.3035C45.9931 73.2145 45.0616 74.0027 44.3857 74.5631C44.0478 74.8434 43.7737 75.0668 43.5839 75.2202C43.4891 75.2969 43.4153 75.3561 43.3652 75.3962L43.3081 75.4417L43.2887 75.4571C43.2887 75.4572 43.2884 75.4574 43.168 75.3054C43.0476 75.1533 43.0476 75.1533 43.0476 75.1533L43.0666 75.1382L43.1229 75.0933C43.1725 75.0536 43.2458 74.9948 43.3401 74.9186C43.5287 74.7661 43.8015 74.5437 44.1381 74.2646C44.8114 73.7062 45.7393 72.9211 46.7578 72.0139C48.7982 70.1964 51.1899 67.8998 52.6317 65.9582C52.6955 65.8722 52.817 65.8543 52.903 65.9181ZM43.0159 75.4258C42.9495 75.3418 42.9637 75.2198 43.0476 75.1533L43.168 75.3054L43.2884 75.4574C43.2044 75.5239 43.0824 75.5097 43.0159 75.4258Z" fill="#C622AC"/>
<path d="M19.5074 73.7925C19.5074 73.7925 14.9692 67.7416 13.5341 66.2289C13.5341 66.2289 11.9438 64.4834 10.8965 66.0737L12.448 70.224L18.7316 76.5465L21.9122 76.7792L19.5074 73.7925Z" fill="#FF60E6"/>
<path d="M52.7874 66.0738C49.9947 69.7587 43.168 75.3053 43.168 75.3053C45.185 72.7841 46.7365 67.3926 43.7886 67.6641C41.9268 67.8193 41.6553 70.4569 35.7595 75.0338C35.7207 75.0726 35.682 75.0726 35.682 75.1114C33.4323 76.8957 30.2904 76.8957 28.0407 75.1114C28.0019 75.0726 27.9632 75.0726 27.9632 75.0338C22.0674 70.4957 21.7959 67.8193 19.9341 67.6641C16.9862 67.3926 18.5377 72.7841 20.5547 75.3053C20.5547 75.3053 13.728 69.7199 10.9353 66.0738C8.14255 62.389 3.99225 64.2508 7.17286 68.7114C10.1983 72.9781 18.7316 82.6363 30.1741 87.0581C31.2601 87.4847 32.4626 87.4847 33.5486 87.0581C44.991 82.6363 53.5244 72.9393 56.5498 68.7114C59.7304 64.2508 55.5801 62.389 52.7874 66.0738Z" fill="#FF60E6"/>
<path fill-rule="evenodd" clip-rule="evenodd" d="M10.7808 65.9181C10.8668 65.8543 10.9883 65.8722 11.0522 65.9582C12.4939 67.8998 14.8857 70.1964 16.9261 72.0139C17.9446 72.9211 18.8725 73.7062 19.5457 74.2646C19.8823 74.5437 20.1552 74.7661 20.3438 74.9186C20.4381 74.9948 20.5113 75.0536 20.5609 75.0933L20.6173 75.1382L20.636 75.1531C20.636 75.1531 20.6363 75.1533 20.5159 75.3054C20.3955 75.4574 20.3954 75.4574 20.3954 75.4573L20.3758 75.4417L20.3187 75.3962C20.2685 75.3561 20.1948 75.2969 20.0999 75.2202C19.9102 75.0668 19.6361 74.8434 19.2981 74.5631C18.6223 74.0027 17.6908 73.2145 16.6681 72.3035C14.6261 70.4846 12.2081 68.1655 10.7408 66.1895C10.6769 66.1035 10.6949 65.982 10.7808 65.9181ZM20.6679 75.4258C20.6014 75.5097 20.4793 75.5238 20.3954 75.4573L20.5159 75.3054L20.636 75.1531C20.72 75.2196 20.7344 75.3418 20.6679 75.4258Z" fill="#C622AC"/>
<path d="M41.3062 53.3126C41.0734 53.1962 40.8407 53.1187 40.608 53.1187H36.225V48.7356C36.225 47.8823 35.5268 47.2229 34.7122 47.2229H29.088C28.2347 47.2229 27.5753 47.9211 27.5753 48.7356V53.1187H23.1922C22.3389 53.1187 21.6795 53.8168 21.6795 54.6702V60.2944C21.6795 61.1477 22.3777 61.8071 23.1922 61.8071H27.4977V66.1902C27.4977 67.0435 28.1959 67.7029 29.0104 67.7029H34.6347C35.488 67.7029 36.1474 67.0047 36.1474 66.1902V61.8071H40.5304C41.3837 61.8071 42.0431 61.109 42.0431 60.2944V54.6702C42.1207 54.0884 41.8104 53.5841 41.3062 53.3126Z" fill="white"/>
<path d="M63.1825 55.5623C62.9498 56.6872 61.9801 57.4241 60.894 57.4241C60.7389 57.4241 60.5837 57.4241 60.4674 57.3853C59.1874 57.1526 58.3728 55.9114 58.6443 54.6702C60.4286 45.555 56.4334 38.7672 48.2104 36.9053C40.7243 35.2375 33.6262 42.6072 33.5486 42.6847C33.5486 42.6847 41.9656 29.8072 56.8213 35.8193C58.4504 37.0605 59.8468 38.5344 60.9328 40.2799C63.5316 44.4302 64.3074 49.7053 63.1825 55.5623Z" fill="#C622AC"/>
<path d="M30.1353 42.6846C30.0577 42.607 22.9595 35.2374 15.4734 36.9052C7.2892 38.7671 3.29405 45.5549 5.03951 54.6701C5.27224 55.9113 4.45769 57.1525 3.21647 57.3852C1.97526 57.618 0.734049 56.8034 0.501322 55.5622C-0.623526 49.744 0.152238 44.4689 2.75103 40.2798C4.768 37.0604 7.75466 34.6555 11.4783 33.2592C23.6577 30.6604 30.1353 42.6846 30.1353 42.6846Z" fill="#FF60E6"/>
<path d="M12.3316 43.6155C12.3316 43.6155 18.5377 44.2749 17.4129 50.7524C10.8965 49.7052 12.3316 43.6155 12.3316 43.6155Z" fill="#FF60E6"/>
<path fill-rule="evenodd" clip-rule="evenodd" d="M12.7613 43.9299L17.2219 50.2136L16.9056 50.4381L12.445 44.1545L12.7613 43.9299Z" fill="white"/>
<path d="M51.3522 43.6155C51.3522 43.6155 45.1462 44.2749 46.271 50.7524C52.7874 49.7052 51.3522 43.6155 51.3522 43.6155Z" fill="#FF60E6"/>
<path fill-rule="evenodd" clip-rule="evenodd" d="M51.2384 44.155L46.739 50.4387L46.4236 50.2128L50.923 43.9292L51.2384 44.155Z" fill="white"/>
<path d="M55.5801 57.5405C55.5801 57.5405 50.6929 53.6229 46.9692 59.0144C52.2832 62.8544 55.5801 57.5405 55.5801 57.5405Z" fill="#FF60E6"/>
<path fill-rule="evenodd" clip-rule="evenodd" d="M55.108 57.8093L47.5056 59.0893L47.4412 58.7068L55.0437 57.4268L55.108 57.8093Z" fill="white"/>
<path d="M8.06494 57.5405C8.06494 57.5405 12.9522 53.6229 16.6759 59.0144C11.4007 62.8544 8.06494 57.5405 8.06494 57.5405Z" fill="#FF60E6"/>
<path fill-rule="evenodd" clip-rule="evenodd" d="M8.60125 57.4268L16.2425 58.7068L16.1784 59.0893L8.53717 57.8093L8.60125 57.4268Z" fill="white"/>
</g>
<rect x="108" width="120" height="120" rx="60" fill="#FFADF2"/>
<g clip-path="url(#clip1_1_53)">
<path fill-rule="evenodd" clip-rule="evenodd" d="M168 28C185.661 28 200 42.3387 200 60C200 77.6616 185.661 92 168 92C150.338 92 136 77.6613 136 60C136 42.3387 150.338 28 168 28Z" fill="#C622AC"/>
<mask id="mask0_1_53" style="mask-type:luminance" maskUnits="userSpaceOnUse" x="136" y="28" width="64" height="64">
<path d="M168 28C185.661 28 200 42.3387 200 60C200 77.6616 185.661 92 168 92C150.338 92 136 77.6613 136 60C136 42.3387 150.338 28 168 28Z" fill="white"/>
</mask>
<g mask="url(#mask0_1_53)">
<path fill-rule="evenodd" clip-rule="evenodd" d="M177.969 54.637C180.461 54.637 182.486 56.6614 182.486 59.1547C182.486 61.6475 180.461 63.672 177.969 63.672C175.475 63.672 173.451 61.6475 173.451 59.1547C173.451 56.6614 175.475 54.637 177.969 54.637Z" fill="white"/>
</g>
<mask id="mask1_1_53" style="mask-type:luminance" maskUnits="userSpaceOnUse" x="136" y="28" width="64" height="64">
<path d="M168 28C185.661 28 200 42.3387 200 60C200 77.6616 185.661 92 168 92C150.338 92 136 77.6613 136 60C136 42.3387 150.338 28 168 28Z" fill="white"/>
</mask>
<g mask="url(#mask1_1_53)">
<path fill-rule="evenodd" clip-rule="evenodd" d="M158.077 64.4412C160.137 64.4412 161.809 66.1138 161.809 68.174C161.809 70.2337 160.137 71.906 158.077 71.906C156.017 71.906 154.344 70.2337 154.344 68.174C154.344 66.1142 156.017 64.4412 158.077 64.4412Z" fill="white"/>
</g>
<mask id="mask2_1_53" style="mask-type:luminance" maskUnits="userSpaceOnUse" x="136" y="28" width="64" height="64">
<path d="M168 28C185.661 28 200 42.3387 200 60C200 77.6616 185.661 92 168 92C150.338 92 136 77.6613 136 60C136 42.3387 150.338 28 168 28Z" fill="white"/>
</mask>
<g mask="url(#mask2_1_53)">
</g>
<mask id="mask3_1_53" style="mask-type:luminance" maskUnits="userSpaceOnUse" x="136" y="28" width="64" height="64">
<path d="M168 28C185.661 28 200 42.3387 200 60C200 77.6616 185.661 92 168 92C150.338 92 136 77.6613 136 60C136 42.3387 150.338 28 168 28Z" fill="white"/>
</mask>
<g mask="url(#mask3_1_53)">
<path fill-rule="evenodd" clip-rule="evenodd" d="M149.886 90.7498C146.641 85.1814 144.172 71.2962 143.599 67.645C142.863 62.9617 141.264 60.1841 143.765 59.3596C146.447 58.475 148.435 65.8389 153.732 71.659C159.434 77.9251 167.03 73.7938 168.528 77.7339C169.298 79.7579 164.079 81.5857 161.897 84.4299C158.351 89.0532 158.667 92.0177 158.85 96.3524" fill="white"/>
<path fill-rule="evenodd" clip-rule="evenodd" d="M178.092 97.0871C177.562 94.738 177.913 92.1312 177.713 89.7412C177.395 85.9429 176.242 81.9662 173.916 78.8966C172.872 77.518 171.644 76.1941 170.17 75.2718C168.668 74.333 166.982 73.7106 165.587 72.601C164.459 71.7042 162.997 70.0285 163.238 68.4434C163.52 66.5799 165.942 66.7743 167.291 66.8932C171.556 67.2686 175.844 67.8269 180.034 66.5595C183.915 65.3855 186.66 62.4576 189.084 59.3762C189.494 58.8552 190.968 56.8708 191.924 57.3887C193.476 58.2281 193.285 61.1866 193.341 62.6202C193.573 68.4363 192.892 74.13 190.985 79.6532C189.527 83.8788 187.569 88.4389 184.436 91.7064" fill="white"/>
</g>
</g>
<rect x="244" width="120" height="120" rx="60" fill="#FFADF2"/>
<g clip-path="url(#clip2_1_53)">
<path d="M278.991 36.9921C290.29 29.0118 298.981 39.5205 298.981 39.5205L323.396 68.9921C323.396 68.9921 324.937 71.56 322.724 73.5353C320.472 75.5501 318.932 74.1279 318.932 74.1279C318.932 74.1279 320.354 77.2094 317.865 78.6711C315.376 80.1328 313.638 78.2365 313.638 78.2365C313.638 78.2365 315.06 81.6341 312.611 83.2143C310.161 84.7946 307.672 82.1476 307.672 82.1476C307.672 82.1476 308.66 84.9921 306.369 85.9402C304.077 86.8884 302.379 85.5452 302.379 85.5452C298.665 82.9378 281.124 65.239 281.124 65.239C271.169 55.402 267.811 44.9328 278.991 36.9921Z" fill="#FF60E6"/>
<path d="M293.016 52.834L310.398 38.1377C310.398 38.1377 321.776 27.7476 332.719 39.955C341.095 49.3575 329.322 62.2365 322.132 67.8068L309.845 52.676C309.845 52.676 300.403 60.4192 295.544 56.9031C295.07 56.5476 292.542 53.2686 293.016 52.834Z" fill="#C622AC"/>
<path fill-rule="evenodd" clip-rule="evenodd" d="M311.647 65.6608C311.785 65.5433 311.992 65.5599 312.11 65.6979L319.142 73.9547C319.259 74.0926 319.243 74.2997 319.105 74.4172C318.967 74.5347 318.76 74.5181 318.642 74.3802L311.61 66.1234C311.493 65.9854 311.509 65.7783 311.647 65.6608Z" fill="#C622AC"/>
<path fill-rule="evenodd" clip-rule="evenodd" d="M306.389 70.0491C306.526 69.9297 306.733 69.9434 306.852 70.0797L313.845 78.0599C313.965 78.1962 313.951 78.4035 313.815 78.5229C313.678 78.6424 313.471 78.6287 313.352 78.4924L306.359 70.5121C306.24 70.3758 306.253 70.1685 306.389 70.0491Z" fill="#C622AC"/>
<path fill-rule="evenodd" clip-rule="evenodd" d="M300.66 74.2373C300.796 74.1175 301.004 74.1304 301.123 74.2663L307.918 81.9701C308.038 82.106 308.025 82.3133 307.889 82.4332C307.754 82.553 307.546 82.54 307.426 82.4041L300.631 74.7004C300.511 74.5645 300.524 74.3572 300.66 74.2373Z" fill="#C622AC"/>
<path fill-rule="evenodd" clip-rule="evenodd" d="M310.082 52.4135C309.937 52.3048 309.731 52.3342 309.622 52.4792L310.082 52.4135ZM309.885 52.676C309.688 52.9385 309.688 52.9386 309.688 52.9388L309.689 52.9392L309.691 52.9406L309.697 52.9454L309.721 52.9633C309.743 52.9787 309.774 53.0011 309.814 53.0298C309.895 53.0873 310.014 53.1699 310.167 53.2722C310.475 53.4768 310.921 53.7605 311.483 54.0793C312.606 54.7165 314.194 55.4969 316.05 56.0663C319.761 57.2044 324.589 57.5101 328.894 54.0783C329.036 53.9653 329.059 53.7589 328.946 53.6172C328.833 53.4755 328.627 53.4522 328.485 53.5651C324.415 56.8099 319.841 56.5427 316.243 55.4389C314.445 54.8873 312.901 54.1294 311.807 53.5086C311.26 53.1984 310.827 52.9231 310.531 52.726C310.383 52.6275 310.27 52.5486 310.194 52.4947C310.156 52.4677 310.127 52.447 310.108 52.4333L310.088 52.418L310.083 52.4144L310.082 52.4135M309.885 52.676L309.688 52.9385C309.543 52.8298 309.514 52.6241 309.622 52.4792" fill="#FF60E6"/>
</g>
<rect x="380" width="120" height="120" rx="60" fill="#FFADF2"/>
<g clip-path="url(#clip3_1_53)">
<path fill-rule="evenodd" clip-rule="evenodd" d="M426.672 44.3532C426.672 48.5544 428.534 52.3201 431.478 54.8709C429.7 52.7833 428.625 50.0769 428.625 47.1193C428.625 41.8534 432.029 37.3821 436.756 35.7859C435.873 34.8459 435.332 33.5817 435.332 32.1899C435.332 31.9372 435.35 31.6888 435.384 31.4458C430.277 33.5057 426.672 38.508 426.672 44.3532ZM444.414 35.7859C449.141 37.3821 452.545 41.8534 452.545 47.1193C452.545 50.0769 451.471 52.7833 449.692 54.8709C452.636 52.3201 454.498 48.5539 454.498 44.3532C454.498 38.5086 450.893 33.5057 445.786 31.4463C445.82 31.6893 445.839 31.9377 445.839 32.1905C445.837 33.5811 445.297 34.8459 444.414 35.7859Z" fill="#C622AC"/>
<path fill-rule="evenodd" clip-rule="evenodd" d="M436.395 32.1898C436.395 34.5036 438.271 36.3797 440.585 36.3797C442.898 36.3797 444.774 34.5036 444.774 32.1898C444.774 29.8761 442.898 28 440.585 28C438.271 28 436.395 29.8761 436.395 32.1898Z" fill="#C622AC"/>
<path fill-rule="evenodd" clip-rule="evenodd" d="M420.094 63.839C423.732 65.9396 427.924 66.2102 431.606 64.9362C428.908 65.4325 426.027 65.01 423.466 63.5309C418.906 60.8982 416.735 55.7142 417.716 50.8226C416.461 51.1176 415.095 50.9538 413.891 50.258C413.671 50.1316 413.466 49.9922 413.273 49.8403C412.502 55.2939 415.032 60.9167 420.094 63.839ZM421.545 44.191C425.291 40.895 430.865 40.1834 435.426 42.8161C437.987 44.2946 439.793 46.5785 440.713 49.1624C439.975 45.3376 437.644 41.842 434.007 39.7413C428.945 36.819 422.81 37.4395 418.473 40.8331C418.7 40.9248 418.924 41.0327 419.143 41.1597C420.348 41.8555 421.172 42.9565 421.545 44.191Z" fill="#FF60E6"/>
<path fill-rule="evenodd" clip-rule="evenodd" d="M414.422 49.338C416.426 50.4949 418.988 49.8082 420.145 47.8042C421.302 45.8001 420.615 43.2374 418.611 42.0805C416.607 40.9236 414.045 41.6103 412.888 43.6143C411.731 45.6179 412.418 48.1806 414.422 49.338Z" fill="#C622AC"/>
<path fill-rule="evenodd" clip-rule="evenodd" d="M433.68 79.2796C437.318 77.179 439.649 73.684 440.386 69.8592C439.467 72.4436 437.661 74.727 435.1 76.2055C430.539 78.8387 424.965 78.1266 421.219 74.8306C420.846 76.065 420.021 77.166 418.816 77.8619C418.598 77.9882 418.373 78.0967 418.146 78.1884C422.484 81.5809 428.619 82.2019 433.68 79.2796ZM417.39 68.199C416.409 63.3068 418.579 58.1238 423.14 55.4906C425.701 54.0116 428.582 53.5885 431.28 54.0853C427.599 52.8118 423.406 53.0819 419.768 55.1826C414.706 58.1049 412.177 63.7282 412.946 69.1812C413.139 69.0299 413.345 68.8899 413.564 68.7636C414.769 68.0677 416.134 67.9039 417.39 68.199Z" fill="white"/>
<path fill-rule="evenodd" clip-rule="evenodd" d="M418.285 76.9415C420.29 75.7841 420.976 73.2219 419.819 71.2178C418.662 69.2138 416.1 68.5271 414.096 69.684C412.092 70.8409 411.405 73.4036 412.562 75.4077C413.719 77.4117 416.281 78.0984 418.285 76.9415Z" fill="#C622AC"/>
<path fill-rule="evenodd" clip-rule="evenodd" d="M453.845 75.2336C453.845 71.0329 451.983 67.2667 449.039 64.7159C450.818 66.8035 451.892 69.5099 451.892 72.4675C451.892 77.7339 448.488 82.2047 443.761 83.8014C444.644 84.7414 445.185 86.0056 445.185 87.3974C445.185 87.6496 445.167 87.898 445.132 88.1415C450.24 86.0805 453.845 81.0782 453.845 75.2336ZM436.104 83.8009C431.377 82.2042 427.973 77.7334 427.973 72.4669C427.973 69.5094 429.047 66.8029 430.826 64.7153C427.882 67.2661 426.02 71.0323 426.02 75.233C426.02 81.0782 429.625 86.0805 434.732 88.1404C434.698 87.8974 434.68 87.649 434.68 87.3963C434.68 86.0056 435.221 84.7408 436.104 83.8009Z" fill="#C622AC"/>
<path fill-rule="evenodd" clip-rule="evenodd" d="M444.122 87.3969C444.122 85.0826 442.247 83.207 439.933 83.207C437.619 83.207 435.743 85.0831 435.743 87.3969C435.743 89.7112 437.619 91.5867 439.933 91.5867C442.247 91.5867 444.122 89.7106 444.122 87.3969Z" fill="#C622AC"/>
<path fill-rule="evenodd" clip-rule="evenodd" d="M460.423 55.7473C456.786 53.6466 452.593 53.3765 448.912 54.65C451.609 54.1538 454.49 54.5763 457.052 56.0553C461.612 58.688 463.782 63.8715 462.801 68.7637C464.057 68.4686 465.423 68.6324 466.627 69.3283C466.846 69.4546 467.052 69.594 467.245 69.7459C468.015 64.2929 465.485 58.6696 460.423 55.7473ZM458.973 75.3953C455.226 78.6907 449.652 79.4028 445.092 76.7696C442.531 75.2911 440.724 73.0077 439.805 70.4233C440.542 74.2481 442.873 77.7437 446.511 79.8443C451.572 82.7666 457.708 82.1456 462.045 78.7525C461.817 78.6609 461.593 78.5524 461.375 78.426C460.17 77.7307 459.345 76.6297 458.973 75.3953Z" fill="#FF60E6"/>
<path fill-rule="evenodd" clip-rule="evenodd" d="M466.096 70.2487C464.092 69.0918 461.529 69.7785 460.372 71.7825C459.216 73.7866 459.902 76.3488 461.906 77.5062C463.91 78.6631 466.473 77.977 467.63 75.9724C468.787 73.9683 468.1 71.4061 466.096 70.2487Z" fill="#C622AC"/>
<path fill-rule="evenodd" clip-rule="evenodd" d="M446.837 40.307C443.199 42.4076 440.868 45.9032 440.131 49.7275C441.05 47.1431 442.857 44.8597 445.418 43.3812C449.978 40.7485 455.552 41.4601 459.299 44.7561C459.671 43.5216 460.496 42.4206 461.7 41.7253C461.919 41.5989 462.143 41.4905 462.371 41.3988C458.034 38.0052 451.899 37.3842 446.837 40.307ZM463.127 51.3877C464.108 56.2799 461.938 61.4628 457.377 64.096C454.816 65.5745 451.935 65.9976 449.238 65.5013C452.919 66.7748 457.111 66.5047 460.749 64.4041C465.811 61.4818 468.341 55.8585 467.571 50.4054C467.378 50.5568 467.172 50.6967 466.953 50.8231C465.748 51.5189 464.383 51.6827 463.127 51.3877Z" fill="white"/>
<path fill-rule="evenodd" clip-rule="evenodd" d="M462.232 42.6452C460.228 43.8021 459.542 46.3648 460.698 48.3689C461.855 50.3729 464.418 51.0596 466.422 49.9022C468.426 48.7453 469.113 46.1826 467.956 44.1785C466.799 42.175 464.236 41.4883 462.232 42.6452Z" fill="#C622AC"/>
</g>
<rect x="516" width="120" height="120" rx="60" fill="#FFADF2"/>
<g clip-path="url(#clip4_1_53)">
<path fill-rule="evenodd" clip-rule="evenodd" d="M576.941 33C585.097 33 592.408 36.615 597.361 42.3293C593.307 38.8763 588.053 36.7907 582.312 36.7907C572.088 36.7907 563.408 43.3985 560.308 52.5759C558.484 50.8621 556.028 49.8112 553.328 49.8112C552.838 49.8112 552.355 49.8462 551.883 49.9133C555.882 39.9983 565.594 33 576.941 33ZM560.308 67.4432C563.408 76.6206 572.088 83.2288 582.312 83.2288C588.053 83.2288 593.307 81.1432 597.361 77.6903C592.408 83.4051 585.097 87.0196 576.941 87.0196C565.594 87.0196 555.882 80.0212 551.883 70.1058C552.355 70.1728 552.837 70.2079 553.328 70.2079C556.028 70.2079 558.484 69.1569 560.308 67.4432Z" fill="white"/>
<path d="M554.624 68.0385C559.059 67.3223 562.074 63.1464 561.358 58.7113C560.641 54.2762 556.466 51.2614 552.03 51.9775C547.595 52.6936 544.581 56.8695 545.297 61.3046C546.013 65.7398 550.189 68.7546 554.624 68.0385Z" fill="#C622AC"/>
<path fill-rule="evenodd" clip-rule="evenodd" d="M583.213 39.1328C576.909 39.1328 571.258 41.927 567.43 46.344C570.563 43.6753 574.624 42.0631 579.062 42.0631C586.964 42.0631 593.673 47.1704 596.069 54.2642C597.479 52.9395 599.377 52.1274 601.464 52.1274C601.843 52.1274 602.216 52.1548 602.581 52.2061C599.49 44.5423 591.983 39.1328 583.213 39.1328ZM596.069 65.7553C593.673 72.8491 586.964 77.9564 579.062 77.9564C574.624 77.9564 570.563 76.3448 567.43 73.6755C571.258 78.0926 576.909 80.8867 583.213 80.8867C591.983 80.8867 599.49 75.4777 602.581 67.8135C602.216 67.8653 601.843 67.8927 601.464 67.8927C599.377 67.8922 597.479 67.08 596.069 65.7553Z" fill="#FF60E6"/>
<path fill-rule="evenodd" clip-rule="evenodd" d="M580.708 45.394C585.121 45.394 589.078 47.3501 591.758 50.4424C589.564 48.5737 586.721 47.4456 583.614 47.4456C578.081 47.4456 573.385 51.021 571.707 55.9876C570.72 55.0601 569.391 54.4917 567.93 54.4917C567.665 54.4917 567.404 54.511 567.149 54.5471C569.312 49.1812 574.568 45.394 580.708 45.394ZM571.707 64.0318C573.385 68.9979 578.081 72.5737 583.614 72.5737C586.721 72.5737 589.564 71.4456 591.758 69.5769C589.078 72.6692 585.121 74.6253 580.708 74.6253C574.568 74.6253 569.312 70.8381 567.149 65.4728C567.404 65.5088 567.665 65.5281 567.93 65.5281C569.391 65.5281 570.72 64.9598 571.707 64.0318Z" fill="#C622AC"/>
<path fill-rule="evenodd" clip-rule="evenodd" d="M567.93 64.4112C570.354 64.4112 572.332 62.4338 572.332 60.0094C572.332 57.5851 570.354 55.6077 567.93 55.6077C565.505 55.6077 563.528 57.5851 563.528 60.0094C563.528 62.4338 565.505 64.4112 567.93 64.4112Z" fill="#C622AC"/>
</g>
<defs>
<clipPath id="clip0_1_53">
<rect width="64" height="55.4667" fill="white" transform="translate(0 32)"/>
</clipPath>
<clipPath id="clip1_1_53">
<rect width="64" height="64" fill="white" transform="translate(136 28)"/>
</clipPath>
<clipPath id="clip2_1_53">
<rect width="64" height="52.5432" fill="white" transform="translate(272 34)"/>
</clipPath>
<clipPath id="clip3_1_53">
<rect width="56.9492" height="64" fill="white" transform="translate(412 28)"/>
</clipPath>
<clipPath id="clip4_1_53">
<rect width="64" height="54.3492" fill="white" transform="translate(544 33)"/>
</clipPath>
</defs>
</svg>
