<svg width="580" height="120" viewBox="0 0 580 120" fill="none" xmlns="http://www.w3.org/2000/svg">
<rect x="-60" width="120" height="120" rx="60" fill="#FFADF2"/>
<g clip-path="url(#clip0_1_118)">
<path d="M22.3688 69.8092C27.3324 57.5536 21.4211 43.5947 9.16547 38.6311C-3.09013 33.6675 -17.049 39.5788 -22.0126 51.8344C-26.9762 64.09 -21.0649 78.0489 -8.80928 83.0125C3.44632 87.9761 17.4052 82.0648 22.3688 69.8092Z" fill="#C622AC"/>
<path d="M17.2436 70.6412C17.199 68.5019 16.3147 66.2694 14.5125 65.1162C14.0328 64.8091 13.5068 64.5924 12.9579 64.4552C13.13 63.8633 13.2683 63.2671 13.3516 62.6698C13.6369 60.6241 13.5503 58.4745 13.6304 56.413C13.7328 53.7706 13.8215 51.1276 13.8798 48.4841C13.9451 45.5264 13.9723 42.5677 13.938 39.6089C13.9222 38.2591 13.8825 36.8614 13.2988 35.6444C12.7151 34.427 11.4323 33.4382 10.0966 33.632C9.02017 33.7883 8.1615 34.6714 7.72918 35.6695C7.29685 36.6675 7.21572 37.7772 7.14004 38.8624C6.9157 42.0918 6.69083 45.3212 6.4665 48.5506C6.33963 50.3752 6.19588 52.2607 5.34048 53.8773C4.63809 53.6018 4.21393 52.692 4.10558 51.9449C3.10916 45.044 2.35503 38.2068 1.61017 31.9958C1.50072 31.0849 1.02103 30.2295 0.400852 29.5532C-0.219324 28.8769 -1.14551 28.4321 -2.05264 28.5693C-3.84239 28.8399 -4.13205 31.344 -4.41465 32.7728C-4.83445 34.8985 -4.16744 47.754 -5.00215 52.0985C-5.11105 52.6653 -5.48512 53.0105 -6.05465 53.1041C-7.14799 53.2844 -9.7828 44.9667 -11.3471 41.0491C-11.8481 39.7946 -12.3691 38.4916 -13.3585 37.5714C-13.7881 37.1718 -14.3407 36.8461 -14.9261 36.8859C-16.0788 36.9648 -16.626 38.3206 -16.8084 39.4613C-17.3496 42.847 -13.6912 58.3493 -12.8113 63.663C-12.9703 63.6962 -13.1282 63.7343 -13.285 63.7789C-14.3936 64.0936 -15.4521 64.7263 -16.0597 65.7053C-17.0142 67.2435 -16.6695 69.2353 -16.1381 70.9657C-14.6489 75.81 -11.97 80.191 -9.24811 84.4664C-8.74935 85.2499 -8.23481 86.047 -7.51063 86.6291C-6.75977 87.2324 -5.83142 87.5662 -4.90741 87.8379C-2.31345 88.6002 0.400301 88.953 3.10262 88.88C4.33208 88.8468 5.56972 88.7238 6.7431 88.3552C9.16555 87.5934 11.1725 85.8162 12.6263 83.7346C14.0801 81.653 15.0341 79.2676 15.8922 76.8778C16.6158 74.8643 17.2883 72.7805 17.2436 70.6412Z" fill="#FFADF2"/>
<path d="M-4.15059 60.5207C-5.63324 59.5782 -7.13495 58.6569 -8.72813 57.9159C-9.51329 57.5505 -10.3382 57.2254 -11.2029 57.1846C-11.5595 57.1677 -11.9466 57.2118 -12.2118 57.4509C-12.4688 57.6828 -12.5559 58.0465 -12.6017 58.3896C-12.9104 60.6982 -11.9439 63.0401 -10.452 64.8287C-8.96009 66.6174 -6.98303 67.9296 -4.98039 69.1182C-3.99758 69.7014 -2.99081 70.266 -1.89584 70.5933C-0.800864 70.92 0.400829 70.9951 1.47293 70.6004C1.84646 70.4626 2.20256 70.2682 2.49658 69.9998C2.83744 69.6883 3.08735 69.2811 3.2213 68.8395C3.79628 66.9457 1.98149 65.2796 0.735149 64.116C-0.746415 62.7319 -2.44469 61.6053 -4.15059 60.5207Z" fill="#FFADF2"/>
<path d="M19.0835 64.8755C19.1211 63.5028 19.035 62.0871 18.4519 60.844C17.8687 59.601 16.6964 58.5588 15.3265 58.469C13.7251 58.3639 12.3122 59.5356 11.3784 60.8408C9.18626 63.9041 8.68478 67.9366 9.29679 71.6533C9.47048 72.7074 9.73292 73.7627 10.2594 74.6921C10.786 75.6216 11.6038 76.4203 12.6204 76.7481C13.5536 77.0492 14.5626 76.8935 15.4104 76.4247C16.1138 76.0354 16.3676 75.5475 16.703 74.8353C17.6411 72.8447 18.3158 70.732 18.7034 68.5655C18.9223 67.3469 19.0497 66.1126 19.0835 64.8755Z" fill="#FFADF2"/>
<path d="M11.0244 66.649C10.6188 66.8423 10.2033 67.028 9.7601 67.1036C9.37242 67.1701 8.9744 67.1499 8.584 67.1004C7.93823 67.0187 7.29246 66.8521 6.7349 66.5161C6.17734 66.1802 5.71234 65.6596 5.53538 65.0329C5.35515 64.3942 5.48802 63.6946 5.80001 63.1087C6.112 62.5228 6.59007 62.0404 7.1106 61.6293C8.65642 60.4075 10.5736 59.7704 12.4619 59.2074C13.259 58.97 14.0801 58.7392 14.9094 58.8023C15.4642 58.8448 16.0621 59.0658 16.3103 59.5635C16.5456 60.035 16.3975 60.6024 16.2036 61.0924C15.1881 63.6614 13.5095 65.4647 11.0244 66.649Z" fill="#FFADF2"/>
<path d="M9.9714 37.6913C9.97032 37.9298 9.77593 38.1225 9.53745 38.122C9.29896 38.1209 9.10621 37.927 9.10675 37.688C9.10784 37.4495 9.30168 37.2568 9.54071 37.2573C9.7792 37.2584 9.97195 37.4523 9.9714 37.6913Z" fill="#C622AC"/>
<path d="M0.367645 34.1281C0.366556 34.3665 0.172174 34.5593 -0.0663143 34.5587C-0.304802 34.5576 -0.497553 34.3638 -0.497008 34.1248C-0.495919 33.8863 -0.302081 33.6935 -0.0630491 33.6941C0.175983 33.6952 0.368734 33.889 0.367645 34.1281Z" fill="#C622AC"/>
<path d="M12.0944 37.66C12.0933 37.8985 11.8995 38.0913 11.6604 38.0907C11.4219 38.0896 11.2292 37.8958 11.2297 37.6568C11.2308 37.4183 11.4252 37.2255 11.6637 37.2261C11.9022 37.2272 12.0949 37.4215 12.0944 37.66Z" fill="#C622AC"/>
<path d="M-2.11688 35.4255C-1.64317 36.0615 -0.572157 36.116 -0.0363766 35.5312" stroke="#C622AC" stroke-width="0.6873" stroke-miterlimit="10" stroke-linecap="round" stroke-linejoin="round"/>
<path d="M9.44379 39.115C9.66648 39.5937 10.1952 39.9122 10.7223 39.8839C11.2493 39.8561 11.7421 39.4837 11.9125 38.9844" stroke="#C622AC" stroke-width="0.6873" stroke-miterlimit="10" stroke-linecap="round" stroke-linejoin="round"/>
<path d="M-1.56256 63.7032C-2.23501 64.1851 -2.96572 64.7644 -3.02126 65.5621C-3.06645 66.209 -2.64556 66.803 -2.20997 67.3126C-1.38071 68.2824 0.462403 69.7689 1.29657 69.3529C1.63361 69.1846 1.79968 68.8492 1.82581 68.4937C1.91184 67.3203 1.46972 66.1698 0.792368 65.1891C0.447704 64.6904 0.0279036 64.2662 -0.385366 63.8197C-0.776857 63.3961 -1.03713 63.3264 -1.56256 63.7032Z" fill="#C622AC"/>
<path d="M4.53954 65.0781C5.30292 66.4611 6.74147 65.6972 7.67528 65.2981C8.43484 64.973 9.24396 64.5276 9.51021 63.7452C9.66757 63.2824 9.60169 62.7624 9.40077 62.3164C9.2053 61.8836 8.83123 61.338 8.41741 61.0843C8.04117 60.8534 7.57563 61.2035 7.22226 61.3881C6.36523 61.8357 5.56427 62.4232 4.95444 63.1789C4.62284 63.59 3.91065 63.939 4.53954 65.0781Z" fill="#C622AC"/>
<path d="M-4.1892 77.98C-3.20694 72.871 -7.1507 67.7424 -7.1507 67.7424C-7.1507 67.7424 -2.77733 71.4063 0.762959 71.1521" stroke="#C622AC" stroke-width="1.1455" stroke-miterlimit="10" stroke-linecap="round" stroke-linejoin="round"/>
<path d="M0.725935 71.1852C1.64667 70.6478 2.17809 69.5768 2.23309 68.5123C2.28808 67.4478 1.91674 66.3959 1.36626 65.4833C0.815773 64.5707 0.315932 63.9081 -0.485016 63.2046C-2.99513 61.0016 -5.91525 59.2668 -9.05043 58.1163C-9.82361 57.8326 -10.6262 57.5816 -11.4495 57.5898C-12.2727 57.5985 -14.5204 57.6693 -16.6309 63.1333" stroke="#C622AC" stroke-width="1.1455" stroke-miterlimit="10" stroke-linecap="round" stroke-linejoin="round"/>
<path d="M4.73173 63.2161C3.22131 68.839 9.98609 66.6436 11.5417 65.9178C13.0979 65.192 14.0807 64.4755 14.0807 64.4755" stroke="#C622AC" stroke-width="1.1455" stroke-miterlimit="10" stroke-linecap="round" stroke-linejoin="round"/>
<path d="M4.73175 63.2161C6.92224 61.5276 9.40948 60.2257 12.0454 59.3878C13.8738 58.8062 16.0643 58.5122 17.5486 59.7281C19.0307 60.9423 19.1755 63.1344 19.0394 65.0456C18.5744 71.5953 16.2156 77.9375 12.7156 83.493" stroke="#C622AC" stroke-width="1.1455" stroke-miterlimit="10" stroke-linecap="round" stroke-linejoin="round"/>
<path d="M12.3829 68.4833C12.4379 68.8078 12.7369 65.8872 14.0812 64.4758" stroke="#C622AC" stroke-width="1.1455" stroke-miterlimit="10" stroke-linecap="round" stroke-linejoin="round"/>
<path d="M-2.08148 28.7126C-0.47904 28.9098 0.81903 30.2008 1.48113 31.6736C2.14269 33.1459 2.28099 34.7919 2.41058 36.4014C2.73292 40.4127 3.05526 44.424 3.37814 48.4353C3.5257 50.268 3.80231 52.6535 5.30021 53.719" stroke="#C622AC" stroke-width="1.1455" stroke-miterlimit="10" stroke-linecap="round" stroke-linejoin="round"/>
<path d="M7.32355 37.4081C7.32355 37.4081 7.67965 35.559 8.28295 34.7287C8.88625 33.8983 9.93821 33.3571 10.9493 33.534C11.9033 33.7012 12.6694 34.4635 13.0848 35.3379C13.5008 36.2124 13.6206 37.1947 13.7126 38.1584C14.3736 45.086 13.8792 52.0658 13.3843 59.007" stroke="#C622AC" stroke-width="1.1455" stroke-miterlimit="10" stroke-linecap="round" stroke-linejoin="round"/>
<path d="M6.07068 52.4541C6.41371 50.9344 6.43712 48.1945 6.59829 46.6449C6.59829 46.6449 7.10085 41.0737 7.10739 39.322" stroke="#C622AC" stroke-width="1.1455" stroke-miterlimit="10" stroke-linecap="round" stroke-linejoin="round"/>
<path d="M11.6697 60.5508C11.7753 60.6575 11.8809 60.7637 11.9871 60.8704" stroke="#C622AC" stroke-width="1.1455" stroke-miterlimit="10" stroke-linecap="round" stroke-linejoin="round"/>
<path d="M12.9449 60.2371C13.191 60.5921 13.4376 60.9465 13.6838 61.3016" stroke="#C622AC" stroke-width="1.1455" stroke-miterlimit="10" stroke-linecap="round" stroke-linejoin="round"/>
<path d="M-2.71747 71.0381C0.724814 72.6863 3.36561 75.9233 4.28852 79.6269" stroke="#C622AC" stroke-width="1.1455" stroke-miterlimit="10" stroke-linecap="round" stroke-linejoin="round"/>
<path d="M2.3006 71.7204C4.2232 69.6617 7.03986 68.4687 9.85652 68.5204" stroke="#C622AC" stroke-width="1.1455" stroke-miterlimit="10" stroke-linecap="round" stroke-linejoin="round"/>
<path d="M9.9502 44.542C10.364 44.5436 10.7773 44.5453 11.1911 44.5469" stroke="#C622AC" stroke-width="1.1455" stroke-miterlimit="10" stroke-linecap="round" stroke-linejoin="round"/>
<path d="M9.57501 49.8591C10.1059 50.0383 10.6373 50.218 11.1682 50.3971" stroke="#C622AC" stroke-width="1.1455" stroke-miterlimit="10" stroke-linecap="round" stroke-linejoin="round"/>
<path d="M-1.76947 49.6375C-1.29685 49.6391 -0.824233 49.6413 -0.351069 49.6429" stroke="#C622AC" stroke-width="1.1455" stroke-miterlimit="10" stroke-linecap="round" stroke-linejoin="round"/>
<path d="M-4.65637 57.4602C-2.9581 60.0602 1.97773 62.6503 5.73255 62.5022" stroke="#C622AC" stroke-width="1.1455" stroke-miterlimit="10" stroke-linecap="round" stroke-linejoin="round"/>
</g>
<rect x="76" width="120" height="120" rx="60" fill="#FFADF2"/>
<g clip-path="url(#clip1_1_118)">
<path d="M136.875 91.2717C143.705 90.8694 148.916 85.0062 148.514 78.176C148.112 71.3458 142.249 66.1349 135.418 66.5372C128.588 66.9395 123.377 72.8026 123.779 79.6329C124.182 86.4631 130.045 91.674 136.875 91.2717Z" fill="white"/>
<path d="M132.971 76.4267C132.969 77.0082 132.495 77.4775 131.914 77.4756C131.332 77.4737 130.863 77.0004 130.865 76.4183C130.867 75.8368 131.341 75.3674 131.922 75.3694C132.504 75.372 132.974 75.8452 132.971 76.4267Z" fill="#C622AC"/>
<path d="M141.724 76.4604C141.721 77.0419 141.248 77.5112 140.667 77.5093C140.085 77.5073 139.616 77.0335 139.618 76.452C139.62 75.8705 140.093 75.4011 140.675 75.4031C141.256 75.4057 141.726 75.8789 141.724 76.4604Z" fill="#C622AC"/>
<path d="M129.985 46.9631C134.633 51.9839 134.332 59.822 129.311 64.4701C124.29 69.1181 116.452 68.816 111.804 63.7959C107.156 58.7751 107.457 50.937 112.478 46.2889C117.499 41.6409 125.337 41.9423 129.985 46.9631Z" fill="#C622AC"/>
<path d="M116.899 55.7382C117.294 56.1647 117.269 56.8312 116.842 57.226C116.415 57.6207 115.749 57.5955 115.354 57.1689C114.959 56.7424 114.984 56.0759 115.411 55.6811C115.838 55.2857 116.504 55.3116 116.899 55.7382Z" fill="white"/>
<path d="M123.322 49.7917C123.716 50.2182 123.691 50.8846 123.264 51.2794C122.837 51.6742 122.171 51.6489 121.776 51.2224C121.381 50.7958 121.407 50.1294 121.833 49.7346C122.26 49.3398 122.927 49.3651 123.322 49.7917Z" fill="white"/>
<path fill-rule="evenodd" clip-rule="evenodd" d="M126.364 54.0479C126.757 53.9372 127.165 54.1662 127.276 54.5593C127.849 56.594 127.263 58.7856 125.746 60.2472L125.746 60.2472C124.171 61.764 121.853 62.2446 119.791 61.4897C119.407 61.3492 119.21 60.9244 119.351 60.5409C119.491 60.1573 119.916 59.9602 120.3 60.1006C121.835 60.663 123.556 60.3021 124.72 59.1818C125.84 58.1022 126.279 56.4756 125.852 54.9603C125.741 54.5671 125.97 54.1586 126.364 54.0479Z" fill="white"/>
<path d="M142.536 47.0119C137.849 51.9964 138.09 59.8365 143.075 64.5234C148.059 69.2103 155.899 68.9692 160.586 63.9847C165.273 59.0002 165.032 51.1601 160.048 46.4732C155.063 41.7863 147.223 42.0274 142.536 47.0119Z" fill="#FF60E6"/>
<path d="M155.554 55.8879C155.155 56.3119 155.176 56.9776 155.6 57.3763C156.023 57.775 156.69 57.7543 157.088 57.3303C157.486 56.907 157.466 56.2406 157.042 55.8419C156.618 55.4439 155.952 55.4639 155.554 55.8879Z" fill="white"/>
<path d="M149.177 49.8921C148.778 50.3154 148.799 50.9818 149.222 51.3805C149.646 51.7792 150.313 51.7584 150.711 51.3344C151.109 50.9111 151.089 50.2447 150.665 49.846C150.242 49.448 149.576 49.4681 149.177 49.8921Z" fill="white"/>
<path d="M136.201 33.8968C135.771 32.6139 135.259 31.3375 134.443 30.2588C133.626 29.1801 132.471 28.3056 131.14 28.0644C128.906 27.6599 126.61 29.2112 125.74 31.309C124.871 33.4061 125.248 35.8675 126.296 37.8817C127.343 39.8958 128.997 41.5275 130.728 42.9958C132.46 44.4642 134.303 45.8112 135.884 47.4403C138.95 45.5487 141.88 42.7638 144.317 40.1098C145.702 38.6013 147.004 36.9138 147.481 34.9217C147.958 32.9296 147.416 30.5719 145.72 29.4219C144.102 28.3237 141.852 28.5934 140.156 29.569C138.46 30.5447 137.425 32.3708 136.201 33.8968Z" fill="white"/>
<path d="M162.169 81.4937C163.38 82.0972 164.645 82.6372 165.985 82.8226C167.325 83.0087 168.76 82.8097 169.873 82.0389C171.738 80.7456 172.265 78.0248 171.397 75.927C170.528 73.8293 168.522 72.3558 166.357 71.6725C164.191 70.9892 161.869 71.0041 159.606 71.1902C157.344 71.3762 155.088 71.727 152.818 71.6926C151.986 75.1984 151.884 79.2397 152.038 82.8388C152.125 84.8854 152.397 86.9987 153.468 88.7445C154.539 90.4903 156.59 91.7738 158.602 91.3888C160.523 91.0205 161.923 89.2391 162.433 87.3501C162.941 85.4617 162.383 83.4378 162.169 81.4937Z" fill="#C622AC"/>
<path d="M109.769 81.2899C108.554 81.8844 107.285 82.414 105.943 82.5897C104.601 82.7654 103.168 82.5553 102.062 81.7761C100.206 80.4686 99.7009 77.7433 100.585 75.6526C101.47 73.562 103.488 72.1041 105.658 71.4376C107.829 70.7712 110.151 70.8043 112.412 71.0078C114.673 71.2114 116.927 71.5796 119.197 71.5628C120.001 75.075 120.071 79.1163 119.89 82.7148C119.787 84.7607 119.498 86.8721 118.414 88.6095C117.329 90.3468 115.268 91.6148 113.259 91.2135C111.34 90.8304 109.955 89.038 109.46 87.1457C108.966 85.2521 109.54 83.2328 109.769 81.2899Z" fill="#FF60E6"/>
<path fill-rule="evenodd" clip-rule="evenodd" d="M153.172 60.9887C153.283 61.3818 153.054 61.7903 152.661 61.901C150.626 62.474 148.434 61.8882 146.973 60.3707L146.973 60.3706C145.456 58.7957 144.975 56.4779 145.73 54.4159C145.871 54.0324 146.296 53.8353 146.679 53.9757C147.063 54.1161 147.26 54.5409 147.119 54.9245C146.557 56.4604 146.918 58.1812 148.038 59.3445C149.118 60.4654 150.744 60.9039 152.26 60.4772C152.653 60.3665 153.061 60.5955 153.172 60.9887Z" fill="white"/>
<path fill-rule="evenodd" clip-rule="evenodd" d="M140.97 81.6303C141.327 81.83 141.453 82.2808 141.254 82.6371C140.22 84.4809 138.256 85.6164 136.15 85.5768L136.15 85.5768C133.963 85.5357 131.985 84.2366 131.06 82.2448C130.889 81.8742 131.05 81.4345 131.42 81.2626C131.791 81.0907 132.23 81.2517 132.402 81.6222C133.091 83.1059 134.563 84.0675 136.177 84.0979C137.733 84.1271 139.194 83.287 139.963 81.9138C140.163 81.5575 140.614 81.4305 140.97 81.6303Z" fill="#C622AC"/>
</g>
<rect x="212" width="120" height="120" rx="60" fill="#FFADF2"/>
<g clip-path="url(#clip2_1_118)">
<path d="M300.935 53.6804L273.04 28.8633C272.014 27.697 270.191 27.7153 269.188 28.901L242.606 53.5067C241.211 55.1564 242.378 57.6838 244.538 57.6924L247.492 57.7038C248.014 57.7061 248.436 58.1307 248.433 58.653L248.316 89.0673C248.311 90.4718 249.444 91.6147 250.85 91.6204L292.643 91.7827C294.047 91.7878 295.19 90.6536 295.196 89.2496L295.312 59.2998C295.315 58.521 295.948 57.8924 296.727 57.8953L299.016 57.9044C301.209 57.9124 302.384 55.3273 300.935 53.6804Z" fill="#C622AC"/>
<path d="M284.899 69.8792L272.006 82.6724L259.213 69.7792C255.179 66.1809 254.829 60.2255 257.771 56.7061C261.065 52.7655 268.009 52.4478 272.106 56.9861C275.605 53.5495 280.752 53.0284 284.048 55.2684C288.181 58.0775 289.225 65.1107 284.899 69.8792Z" fill="white"/>
<mask id="mask0_1_118" style="mask-type:luminance" maskUnits="userSpaceOnUse" x="255" y="53" width="33" height="30">
<path d="M284.899 69.8792L272.006 82.6724L259.213 69.7792C255.179 66.1809 254.829 60.2255 257.771 56.7061C261.065 52.7655 268.009 52.4478 272.106 56.9861C275.605 53.5495 280.752 53.0284 284.048 55.2684C288.181 58.0775 289.225 65.1107 284.899 69.8792Z" fill="white"/>
</mask>
<g mask="url(#mask0_1_118)">
<path d="M267.554 75.7111C267.538 79.8774 265.857 83.2488 263.799 83.2408C261.741 83.2328 260.087 79.8488 260.103 75.6826C260.119 71.5163 261.8 68.1448 263.858 68.1528C265.915 68.1603 267.57 71.5443 267.554 75.7111Z" fill="#FF60E6"/>
<path d="M266.924 64.0432C266.917 65.7278 265.547 67.0878 263.862 67.0815C262.177 67.0752 260.817 65.7043 260.824 64.0198C260.83 62.3352 262.201 60.9746 263.885 60.9815C265.57 60.9878 266.931 62.3586 266.924 64.0432Z" fill="#FF60E6"/>
<path d="M276.192 81.8449C276.176 86.0112 274.495 89.3826 272.437 89.3746C270.379 89.3666 268.724 85.9826 268.741 81.8164C268.757 77.6501 270.438 74.2786 272.496 74.2866C274.553 74.2946 276.208 77.6786 276.192 81.8449Z" fill="#FF60E6"/>
<path d="M275.562 70.1768C275.556 71.8614 274.185 73.222 272.5 73.2151C270.816 73.2082 269.456 71.8374 269.462 70.1528C269.468 68.4682 270.84 67.1077 272.524 67.1145C274.208 67.1214 275.568 68.4922 275.562 70.1768Z" fill="#FF60E6"/>
<path d="M284.877 75.778C284.861 79.9443 283.18 83.3157 281.122 83.3077C279.064 83.2997 277.409 79.9157 277.426 75.7495C277.442 71.5832 279.123 68.2117 281.181 68.2197C283.239 68.2277 284.893 71.6117 284.877 75.778Z" fill="#FF60E6"/>
<path d="M284.247 64.1101C284.241 65.7947 282.869 67.1547 281.185 67.1484C279.5 67.1421 278.14 65.7712 278.147 64.0867C278.153 62.4021 279.524 61.0415 281.208 61.0484C282.893 61.0547 284.253 62.4255 284.247 64.1101Z" fill="#FF60E6"/>
</g>
</g>
<rect x="348" width="120" height="120" rx="60" fill="#FFADF2"/>
<path fill-rule="evenodd" clip-rule="evenodd" d="M386.354 40.6298C391.078 43.4267 398.515 54.979 402.544 57.4142C407.999 60.711 411.729 57.9038 416.436 54.2515C423.225 48.9838 429.489 46.3219 432.145 45.7714C436.798 44.8063 440.374 48.4976 440.823 52.3038C441.52 58.209 439.703 63.412 436.906 68.7251C434.631 73.0487 418.941 90.4741 407.521 91.6569C402.471 92.18 399.345 89.7598 394.391 85.6025C388.048 80.2783 384.819 76.6817 380.531 69.3077C377.818 64.6415 375.575 57.7944 375.06 52.372C374.623 47.7714 376.391 34.7314 386.354 40.6298Z" fill="#C622AC"/>
<mask id="mask1_1_118" style="mask-type:luminance" maskUnits="userSpaceOnUse" x="375" y="39" width="66" height="53">
<path d="M386.354 40.6298C391.078 43.4267 398.515 54.979 402.544 57.4142C407.999 60.711 411.729 57.9038 416.436 54.2515C423.225 48.9838 429.489 46.3219 432.145 45.7714C436.798 44.8063 440.374 48.4976 440.823 52.3038C441.52 58.209 439.703 63.412 436.906 68.7251C434.631 73.0487 418.941 90.4741 407.521 91.6569C402.471 92.18 399.345 89.7598 394.391 85.6025C388.048 80.2783 384.819 76.6817 380.531 69.3077C377.818 64.6415 375.575 57.7944 375.06 52.372C374.623 47.7714 376.391 34.7314 386.354 40.6298Z" fill="white"/>
</mask>
<g mask="url(#mask1_1_118)">
<path fill-rule="evenodd" clip-rule="evenodd" d="M396.994 92.4838C397.966 88.6858 398.806 70.9355 395.413 64.5883C392.882 59.8548 390.151 54.9858 388.497 49.8304C387.941 48.0967 387.1 45.7113 388.009 43.9355C389.153 41.7006 390.869 44.1567 391.953 45.4528C395.632 49.8523 398.984 56.4812 404.956 58.1455C410.359 59.6516 413.355 55.9706 418.719 53.0265C420.306 52.1554 425.018 49.0206 426.922 51.0304C428.954 53.1744 422.262 57.4205 420.09 60.9647C418.637 63.3347 417.395 66.0781 416.845 68.1295C414.422 77.1639 418.802 85.2213 420.047 94.047" fill="#FF60E6"/>
</g>
<path fill-rule="evenodd" clip-rule="evenodd" d="M396.953 28.2766C400.254 28.2766 402.933 30.9334 402.933 34.2054C402.933 37.4782 400.253 40.1346 396.953 40.1346C393.652 40.1346 390.972 37.4778 390.972 34.2054C390.972 30.9334 393.652 28.2766 396.953 28.2766Z" fill="#C622AC"/>
<path d="M423.928 44.9592C427.231 44.9592 429.909 42.3046 429.909 39.03C429.909 35.7554 427.231 33.1008 423.928 33.1008C420.625 33.1008 417.948 35.7554 417.948 39.03C417.948 42.3046 420.625 44.9592 423.928 44.9592Z" fill="#C622AC"/>
<path d="M409.306 52.6604C412.067 52.6604 414.305 50.4417 414.305 47.7048C414.305 44.968 412.067 42.7493 409.306 42.7493C406.545 42.7493 404.308 44.968 404.308 47.7048C404.308 50.4417 406.545 52.6604 409.306 52.6604Z" fill="#FF60E6"/>
<rect x="484" width="120" height="120" rx="60" fill="#FFADF2"/>
<path fill-rule="evenodd" clip-rule="evenodd" d="M538.066 31C539.834 31 541.266 32.4328 541.266 34.2C541.266 35.9677 539.834 37.4005 538.066 37.4005C536.299 37.4005 534.866 35.9677 534.866 34.2C534.866 32.4328 536.299 31 538.066 31Z" fill="#C622AC"/>
<path fill-rule="evenodd" clip-rule="evenodd" d="M543.24 54.9261C534.656 48.8763 528.506 38.809 529.542 31.2798C530.912 34.9134 533.127 39.8999 539.932 41.4345C542.287 37.2789 545.622 33.0356 550.321 31.2798C545.562 37.2085 544.764 45.3032 543.24 54.9261Z" fill="white"/>
<path fill-rule="evenodd" clip-rule="evenodd" d="M516.02 50.3667C516.903 48.8361 518.86 48.3117 520.391 49.1953C521.921 50.0789 522.445 52.0361 521.562 53.5667C520.679 55.0972 518.721 55.6216 517.191 54.738C515.66 53.8544 515.136 51.8972 516.02 50.3667Z" fill="#C622AC"/>
<path fill-rule="evenodd" clip-rule="evenodd" d="M539.327 57.8488C529.796 62.2588 518.003 62.5505 512 57.8885C515.832 58.5195 521.258 59.0945 525.989 53.9686C523.568 49.8507 521.561 44.8409 522.389 39.894C525.144 46.9792 531.755 51.7182 539.327 57.8488Z" fill="#FF60E6"/>
<path fill-rule="evenodd" clip-rule="evenodd" d="M521.706 78.9553C520.822 77.4248 521.346 75.4676 522.877 74.584C524.408 73.7004 526.365 74.2248 527.248 75.7553C528.132 77.2859 527.608 79.2431 526.077 80.1267C524.546 81.0108 522.589 80.4864 521.706 78.9553Z" fill="#C622AC"/>
<path fill-rule="evenodd" clip-rule="evenodd" d="M539.839 62.5112C538.892 72.9705 533.248 83.3296 526.21 86.1977C528.672 83.1946 531.883 78.7831 529.81 72.1231C525.033 72.1608 519.691 71.3938 515.821 68.2033C523.334 69.3597 530.744 66.0039 539.839 62.5112Z" fill="white"/>
<path fill-rule="evenodd" clip-rule="evenodd" d="M549.439 88.5721C547.671 88.5721 546.239 87.1393 546.239 85.3721C546.239 83.6044 547.671 82.1721 549.439 82.1721C551.206 82.1721 552.639 83.6049 552.639 85.3721C552.639 87.1398 551.206 88.5721 549.439 88.5721Z" fill="#C622AC"/>
<path fill-rule="evenodd" clip-rule="evenodd" d="M544.264 64.6467C552.849 70.696 558.998 80.7633 557.962 88.2925C556.593 84.6589 554.378 79.6723 547.574 78.1378C545.218 82.2939 541.883 86.5362 537.184 88.2925C541.943 82.3638 542.741 74.2696 544.264 64.6467Z" fill="#FF60E6"/>
<path fill-rule="evenodd" clip-rule="evenodd" d="M571.485 69.6992C570.602 71.2298 568.644 71.7542 567.114 70.8706C565.583 69.987 565.058 68.0293 565.942 66.4992C566.826 64.9687 568.783 64.4443 570.313 65.3279C571.844 66.2115 572.369 68.1687 571.485 69.6992Z" fill="#C622AC"/>
<path fill-rule="evenodd" clip-rule="evenodd" d="M548.178 62.217C557.709 57.8075 569.503 57.5153 575.505 62.1773C571.673 61.5463 566.247 60.9713 561.517 66.0977C563.938 70.2151 565.945 75.2254 565.116 80.1718C562.361 73.0866 555.75 68.3476 548.178 62.217Z" fill="white"/>
<path fill-rule="evenodd" clip-rule="evenodd" d="M565.8 40.6169C566.683 42.1475 566.159 44.1047 564.628 44.9883C563.098 45.8719 561.141 45.3475 560.257 43.8169C559.373 42.2864 559.898 40.3292 561.428 39.4456C562.958 38.562 564.916 39.0864 565.8 40.6169Z" fill="#C622AC"/>
<path fill-rule="evenodd" clip-rule="evenodd" d="M547.666 57.0609C548.612 46.6017 554.256 36.2426 561.295 33.375C558.833 36.378 555.621 40.7896 557.696 47.4495C562.472 47.4113 567.814 48.1788 571.684 51.3694C564.171 50.2129 556.761 53.5687 547.666 57.0609Z" fill="#FF60E6"/>
<defs>
<clipPath id="clip0_1_118">
<rect width="62.3562" height="64" fill="white" transform="translate(-31 28)"/>
</clipPath>
<clipPath id="clip1_1_118">
<rect width="71.9571" height="64" fill="white" transform="translate(100 28)"/>
</clipPath>
<clipPath id="clip2_1_118">
<rect width="60" height="64" fill="white" transform="translate(242 28)"/>
</clipPath>
</defs>
</svg>
