<svg width="32" height="32" viewBox="0 0 32 32" fill="none" xmlns="http://www.w3.org/2000/svg">
<g clip-path="url(#clip0_1_377)">
<path d="M15.624 12.856C15.8596 12.7522 16.128 12.7521 16.3637 12.8557L30.1376 18.9104C31.5206 19.5183 31.6189 21.443 30.305 22.1886L16.4474 30.0529C16.1661 30.2126 15.8215 30.2124 15.5403 30.0525L1.71253 22.1876C0.400725 21.4415 0.499004 19.5194 1.88007 18.9109L15.624 12.856Z" fill="#FFADF2" fill-opacity="0.5"/>
<path d="M15.624 7.80617C15.8596 7.70237 16.128 7.70226 16.3637 7.80586L30.1376 13.8606C31.5206 14.4685 31.6189 16.3931 30.305 17.1388L16.4474 25.0031C16.1661 25.1628 15.8215 25.1626 15.5403 25.0027L1.71253 17.1378C0.400725 16.3917 0.499004 14.4696 1.88007 13.8611L15.624 7.80617Z" fill="#FFADF2" fill-opacity="0.8"/>
<path d="M15.624 3.67433C15.8596 3.57053 16.128 3.57042 16.3637 3.67403L30.1376 9.72876C31.5206 10.3367 31.6189 12.2613 30.305 13.0069L16.4474 20.8713C16.1661 21.031 15.8215 21.0308 15.5403 20.8709L1.71253 13.006C0.400725 12.2599 0.499004 10.3377 1.88007 9.72928L15.624 3.67433Z" fill="#FF60E6"/>
</g>
<defs>
<clipPath id="clip0_1_377">
<rect width="32.0001" height="32" fill="white"/>
</clipPath>
</defs>
</svg>
